<svg width="177" height="27" viewBox="0 0 177 27" fill="none" xmlns="http://www.w3.org/2000/svg">
<path d="M172.401 22.7H174.7V25H165.5C159.149 25 154 19.8514 154 13.5C154 7.14855 159.149 2 165.5 2C171.851 2 177 7.14855 177 13.5C177.001 15.2855 176.587 17.0467 175.788 18.6437C174.99 20.2407 173.83 21.6296 172.401 22.7ZM165.5 11.2C166.11 11.2 166.695 10.9577 167.126 10.5263C167.558 10.095 167.8 9.51 167.8 8.9C167.8 8.29 167.558 7.70499 167.126 7.27365C166.695 6.84232 166.11 6.6 165.5 6.6C164.89 6.6 164.305 6.84232 163.874 7.27365C163.442 7.70499 163.2 8.29 163.2 8.9C163.2 9.51 163.442 10.095 163.874 10.5263C164.305 10.9577 164.89 11.2 165.5 11.2ZM160.9 15.8C161.51 15.8 162.095 15.5577 162.526 15.1263C162.958 14.695 163.2 14.11 163.2 13.5C163.2 12.89 162.958 12.305 162.526 11.8737C162.095 11.4423 161.51 11.2 160.9 11.2C160.29 11.2 159.705 11.4423 159.274 11.8737C158.842 12.305 158.6 12.89 158.6 13.5C158.6 14.11 158.842 14.695 159.274 15.1263C159.705 15.5577 160.29 15.8 160.9 15.8ZM170.1 15.8C170.71 15.8 171.295 15.5577 171.726 15.1263C172.158 14.695 172.4 14.11 172.4 13.5C172.4 12.89 172.158 12.305 171.726 11.8737C171.295 11.4423 170.71 11.2 170.1 11.2C169.49 11.2 168.905 11.4423 168.474 11.8737C168.042 12.305 167.8 12.89 167.8 13.5C167.8 14.11 168.042 14.695 168.474 15.1263C168.905 15.5577 169.49 15.8 170.1 15.8ZM165.5 20.4C166.11 20.4 166.695 20.1577 167.126 19.7263C167.558 19.295 167.8 18.71 167.8 18.1C167.8 17.49 167.558 16.905 167.126 16.4737C166.695 16.0423 166.11 15.8 165.5 15.8C164.89 15.8 164.305 16.0423 163.874 16.4737C163.442 16.905 163.2 17.49 163.2 18.1C163.2 18.71 163.442 19.295 163.874 19.7263C164.305 20.1577 164.89 20.4 165.5 20.4Z" fill="#F84464"/>
<path d="M1.39062 6H5.5625L9.96875 16.75H10.1563L14.5625 6H18.7344V22H15.4531V11.5859H15.3203L11.1797 21.9219H8.94531L4.80469 11.5469H4.67188V22H1.39062V6ZM26.8809 22.2344C25.6673 22.2344 24.6178 21.9766 23.7324 21.4609C22.8522 20.9401 22.1725 20.2161 21.6934 19.2891C21.2142 18.3568 20.9746 17.276 20.9746 16.0469C20.9746 14.8073 21.2142 13.724 21.6934 12.7969C22.1725 11.8646 22.8522 11.1406 23.7324 10.625C24.6178 10.1042 25.6673 9.84375 26.8809 9.84375C28.0944 9.84375 29.1413 10.1042 30.0215 10.625C30.9069 11.1406 31.5892 11.8646 32.0684 12.7969C32.5475 13.724 32.7871 14.8073 32.7871 16.0469C32.7871 17.276 32.5475 18.3568 32.0684 19.2891C31.5892 20.2161 30.9069 20.9401 30.0215 21.4609C29.1413 21.9766 28.0944 22.2344 26.8809 22.2344ZM26.8965 19.6562C27.4486 19.6562 27.9095 19.5 28.2793 19.1875C28.6491 18.8698 28.9277 18.4375 29.1152 17.8906C29.3079 17.3437 29.4043 16.7214 29.4043 16.0234C29.4043 15.3255 29.3079 14.7031 29.1152 14.1562C28.9277 13.6094 28.6491 13.1771 28.2793 12.8594C27.9095 12.5417 27.4486 12.3828 26.8965 12.3828C26.3392 12.3828 25.8704 12.5417 25.4902 12.8594C25.1152 13.1771 24.8314 13.6094 24.6387 14.1562C24.4512 14.7031 24.3574 15.3255 24.3574 16.0234C24.3574 16.7214 24.4512 17.3437 24.6387 17.8906C24.8314 18.4375 25.1152 18.8698 25.4902 19.1875C25.8704 19.5 26.3392 19.6562 26.8965 19.6562ZM45.752 10L41.5566 22H37.8066L33.6113 10H37.127L39.6191 18.5859H39.7441L42.2285 10H45.752ZM47.4551 22V10H50.7832V22H47.4551ZM49.127 8.45312C48.6322 8.45312 48.2077 8.28906 47.8535 7.96094C47.5046 7.6276 47.3301 7.22917 47.3301 6.76562C47.3301 6.30729 47.5046 5.91406 47.8535 5.58594C48.2077 5.2526 48.6322 5.08594 49.127 5.08594C49.6217 5.08594 50.0436 5.2526 50.3926 5.58594C50.7467 5.91406 50.9238 6.30729 50.9238 6.76562C50.9238 7.22917 50.7467 7.6276 50.3926 7.96094C50.0436 8.28906 49.6217 8.45312 49.127 8.45312ZM58.918 22.2344C57.6836 22.2344 56.6211 21.9844 55.7305 21.4844C54.8451 20.9792 54.1628 20.2656 53.6836 19.3437C53.2044 18.4167 52.9648 17.3203 52.9648 16.0547C52.9648 14.8203 53.2044 13.737 53.6836 12.8047C54.1628 11.8724 54.8372 11.1458 55.707 10.625C56.582 10.1042 57.6081 9.84375 58.7852 9.84375C59.5768 9.84375 60.3138 9.97135 60.9961 10.2266C61.6836 10.4766 62.2826 10.8542 62.793 11.3594C63.3086 11.8646 63.7096 12.5 63.9961 13.2656C64.2826 14.026 64.4258 14.9167 64.4258 15.9375V16.8516H54.293V14.7891H61.293C61.293 14.3099 61.1888 13.8854 60.9805 13.5156C60.7721 13.1458 60.4831 12.8568 60.1133 12.6484C59.7487 12.4349 59.3242 12.3281 58.8398 12.3281C58.3346 12.3281 57.8867 12.4453 57.4961 12.6797C57.1107 12.9089 56.8086 13.2187 56.5898 13.6094C56.3711 13.9948 56.2591 14.4245 56.2539 14.8984V16.8594C56.2539 17.4531 56.3633 17.9661 56.582 18.3984C56.806 18.8307 57.1211 19.1641 57.5273 19.3984C57.9336 19.6328 58.4154 19.75 58.9727 19.75C59.3424 19.75 59.681 19.6979 59.9883 19.5938C60.2956 19.4896 60.5586 19.3333 60.7773 19.125C60.9961 18.9167 61.1628 18.6615 61.2773 18.3594L64.3555 18.5625C64.1992 19.3021 63.8789 19.9479 63.3945 20.5C62.9154 21.0469 62.2956 21.474 61.5352 21.7813C60.7799 22.0833 59.9076 22.2344 58.918 22.2344ZM76.582 13.4219L73.5352 13.6094C73.4831 13.349 73.3711 13.1146 73.1992 12.9062C73.0273 12.6927 72.8008 12.5234 72.5195 12.3984C72.2435 12.2682 71.9128 12.2031 71.5273 12.2031C71.0117 12.2031 70.5768 12.3125 70.2227 12.5312C69.8685 12.7448 69.6914 13.0312 69.6914 13.3906C69.6914 13.6771 69.806 13.9193 70.0352 14.1172C70.2643 14.3151 70.6576 14.474 71.2148 14.5937L73.3867 15.0312C74.5534 15.2708 75.4232 15.6562 75.9961 16.1875C76.569 16.7187 76.8555 17.4167 76.8555 18.2812C76.8555 19.0677 76.6237 19.7578 76.1602 20.3516C75.7018 20.9453 75.0716 21.4089 74.2695 21.7422C73.4727 22.0703 72.5534 22.2344 71.5117 22.2344C69.9232 22.2344 68.6576 21.9036 67.7148 21.2422C66.7773 20.5755 66.2279 19.6693 66.0664 18.5234L69.3398 18.3516C69.4388 18.8359 69.6784 19.2057 70.0586 19.4609C70.4388 19.7109 70.9258 19.8359 71.5195 19.8359C72.1029 19.8359 72.5716 19.724 72.9258 19.5C73.2852 19.2708 73.4674 18.9766 73.4727 18.6172C73.4674 18.3151 73.3398 18.0677 73.0898 17.875C72.8398 17.6771 72.4544 17.526 71.9336 17.4219L69.8555 17.0078C68.6836 16.7734 67.8112 16.3672 67.2383 15.7891C66.6706 15.2109 66.3867 14.474 66.3867 13.5781C66.3867 12.8073 66.5951 12.1432 67.0117 11.5859C67.4336 11.0286 68.0247 10.599 68.7852 10.2969C69.5508 9.99479 70.4466 9.84375 71.4727 9.84375C72.9883 9.84375 74.181 10.1641 75.0508 10.8047C75.9258 11.4453 76.4362 12.3177 76.582 13.4219ZM83.4961 8.78906V6H96.6367V8.78906H91.7383V22H88.3945V8.78906H83.4961ZM98.7383 22V10H102.066V22H98.7383ZM100.41 8.45312C99.9154 8.45312 99.4909 8.28906 99.1367 7.96094C98.7878 7.6276 98.6133 7.22917 98.6133 6.76562C98.6133 6.30729 98.7878 5.91406 99.1367 5.58594C99.4909 5.2526 99.9154 5.08594 100.41 5.08594C100.905 5.08594 101.327 5.2526 101.676 5.58594C102.03 5.91406 102.207 6.30729 102.207 6.76562C102.207 7.22917 102.03 7.6276 101.676 7.96094C101.327 8.28906 100.905 8.45312 100.41 8.45312ZM104.732 22V10H107.904V12.1172H108.045C108.295 11.4141 108.712 10.8594 109.295 10.4531C109.878 10.0469 110.576 9.84375 111.389 9.84375C112.212 9.84375 112.912 10.0495 113.49 10.4609C114.068 10.8672 114.454 11.4193 114.646 12.1172H114.771C115.016 11.4297 115.459 10.8802 116.1 10.4687C116.745 10.0521 117.508 9.84375 118.389 9.84375C119.508 9.84375 120.417 10.2005 121.115 10.9141C121.818 11.6224 122.17 12.6276 122.17 13.9297V22H118.85V14.5859C118.85 13.9193 118.673 13.4193 118.318 13.0859C117.964 12.7526 117.521 12.5859 116.99 12.5859C116.386 12.5859 115.915 12.7786 115.576 13.1641C115.238 13.5443 115.068 14.0469 115.068 14.6719V22H111.842V14.5156C111.842 13.9271 111.673 13.4583 111.334 13.1094C111.001 12.7604 110.561 12.5859 110.014 12.5859C109.644 12.5859 109.311 12.6797 109.014 12.8672C108.722 13.0495 108.49 13.3073 108.318 13.6406C108.146 13.9687 108.061 14.3542 108.061 14.7969V22H104.732ZM130.268 22.2344C129.033 22.2344 127.971 21.9844 127.08 21.4844C126.195 20.9792 125.512 20.2656 125.033 19.3437C124.554 18.4167 124.314 17.3203 124.314 16.0547C124.314 14.8203 124.554 13.737 125.033 12.8047C125.512 11.8724 126.187 11.1458 127.057 10.625C127.932 10.1042 128.958 9.84375 130.135 9.84375C130.926 9.84375 131.663 9.97135 132.346 10.2266C133.033 10.4766 133.632 10.8542 134.143 11.3594C134.658 11.8646 135.059 12.5 135.346 13.2656C135.632 14.026 135.775 14.9167 135.775 15.9375V16.8516H125.643V14.7891H132.643C132.643 14.3099 132.538 13.8854 132.33 13.5156C132.122 13.1458 131.833 12.8568 131.463 12.6484C131.098 12.4349 130.674 12.3281 130.189 12.3281C129.684 12.3281 129.236 12.4453 128.846 12.6797C128.46 12.9089 128.158 13.2187 127.939 13.6094C127.721 13.9948 127.609 14.4245 127.604 14.8984V16.8594C127.604 17.4531 127.713 17.9661 127.932 18.3984C128.156 18.8307 128.471 19.1641 128.877 19.3984C129.283 19.6328 129.765 19.75 130.322 19.75C130.692 19.75 131.031 19.6979 131.338 19.5938C131.645 19.4896 131.908 19.3333 132.127 19.125C132.346 18.9167 132.512 18.6615 132.627 18.3594L135.705 18.5625C135.549 19.3021 135.229 19.9479 134.744 20.5C134.265 21.0469 133.645 21.474 132.885 21.7813C132.13 22.0833 131.257 22.2344 130.268 22.2344ZM147.932 13.4219L144.885 13.6094C144.833 13.349 144.721 13.1146 144.549 12.9062C144.377 12.6927 144.15 12.5234 143.869 12.3984C143.593 12.2682 143.262 12.2031 142.877 12.2031C142.361 12.2031 141.926 12.3125 141.572 12.5312C141.218 12.7448 141.041 13.0312 141.041 13.3906C141.041 13.6771 141.156 13.9193 141.385 14.1172C141.614 14.3151 142.007 14.474 142.564 14.5937L144.736 15.0312C145.903 15.2708 146.773 15.6562 147.346 16.1875C147.919 16.7187 148.205 17.4167 148.205 18.2812C148.205 19.0677 147.973 19.7578 147.51 20.3516C147.051 20.9453 146.421 21.4089 145.619 21.7422C144.822 22.0703 143.903 22.2344 142.861 22.2344C141.273 22.2344 140.007 21.9036 139.064 21.2422C138.127 20.5755 137.577 19.6693 137.416 18.5234L140.689 18.3516C140.788 18.8359 141.028 19.2057 141.408 19.4609C141.788 19.7109 142.275 19.8359 142.869 19.8359C143.452 19.8359 143.921 19.724 144.275 19.5C144.635 19.2708 144.817 18.9766 144.822 18.6172C144.817 18.3151 144.689 18.0677 144.439 17.875C144.189 17.6771 143.804 17.526 143.283 17.4219L141.205 17.0078C140.033 16.7734 139.161 16.3672 138.588 15.7891C138.02 15.2109 137.736 14.474 137.736 13.5781C137.736 12.8073 137.945 12.1432 138.361 11.5859C138.783 11.0286 139.374 10.599 140.135 10.2969C140.9 9.99479 141.796 9.84375 142.822 9.84375C144.338 9.84375 145.531 10.1641 146.4 10.8047C147.275 11.4453 147.786 12.3177 147.932 13.4219Z" fill="#F84464"/>
</svg>
