<svg width="20" height="20" viewBox="0 0 20 20" fill="none" xmlns="http://www.w3.org/2000/svg">
<path d="M6.6516 0.541843C4.65329 1.23507 2.92995 2.55085 1.73471 4.29591C0.539469 6.04096 -0.0646668 8.12332 0.0110377 10.2371C0.0867423 12.3509 0.838297 14.3847 2.15531 16.0398C3.47232 17.6948 5.28538 18.884 7.32816 19.4325C8.98429 19.8598 10.7194 19.8786 12.3844 19.4872C13.8927 19.1484 15.2872 18.4237 16.4313 17.384C17.622 16.2689 18.4863 14.8504 18.9313 13.2809C19.4147 11.5741 19.5008 9.77925 19.1828 8.03403H9.88285V11.8918H15.2688C15.1611 12.5071 14.9305 13.0944 14.5906 13.6185C14.2507 14.1425 13.8086 14.5926 13.2907 14.9418C12.6331 15.3771 11.8916 15.6698 11.1141 15.8012C10.3343 15.9462 9.53449 15.9462 8.75472 15.8012C7.96434 15.638 7.21666 15.3118 6.55941 14.8434C5.50339 14.0959 4.71047 13.0339 4.29378 11.809C3.87017 10.5612 3.87017 9.20843 4.29378 7.96059C4.59039 7.08593 5.08071 6.28955 5.72816 5.63091C6.46908 4.86332 7.40712 4.31465 8.43934 4.04509C9.47156 3.77552 10.5581 3.79548 11.5797 4.10278C12.3778 4.34766 13.1077 4.77571 13.711 5.35278C14.3183 4.74861 14.9245 4.14288 15.5297 3.53559C15.8422 3.20903 16.1828 2.89809 16.4907 2.56372C15.5696 1.70671 14.4886 1.03982 13.3094 0.601218C11.1621 -0.178486 8.8125 -0.199439 6.6516 0.541843Z" fill="white"/>
<path d="M6.6516 0.541839C8.81232 -0.199947 11.1619 -0.179545 13.3094 0.599652C14.4888 1.04123 15.5693 1.71134 16.4891 2.57153C16.1766 2.9059 15.8469 3.2184 15.5282 3.5434C14.9219 4.14861 14.3162 4.75174 13.711 5.35278C13.1077 4.77571 12.3778 4.34766 11.5797 4.10278C10.5584 3.7944 9.47194 3.77329 8.43944 4.04175C7.40694 4.31021 6.46834 4.85787 5.7266 5.62465C5.07915 6.2833 4.58883 7.07968 4.29222 7.95434L1.05316 5.44653C2.21255 3.1474 4.21996 1.38875 6.6516 0.541839Z" fill="#E33629"/>
<path d="M0.193746 7.93091C0.367714 7.06805 0.656755 6.23246 1.05312 5.44653L4.29218 7.9606C3.86857 9.20844 3.86857 10.5612 4.29218 11.809C3.21302 12.6424 2.13333 13.4799 1.05312 14.3215C0.0611684 12.347 -0.24136 10.0973 0.193746 7.93091Z" fill="#F8BD00"/>
<path d="M9.88284 8.03247H19.1828C19.5008 9.77769 19.4147 11.5726 18.9313 13.2793C18.4863 14.8488 17.622 16.2674 16.4313 17.3825C15.386 16.5668 14.336 15.7575 13.2906 14.9418C13.8089 14.5923 14.2512 14.1417 14.5911 13.6171C14.931 13.0924 15.1615 12.5046 15.2688 11.8887H9.88284C9.88127 10.6043 9.88284 9.31841 9.88284 8.03247Z" fill="#587DBD"/>
<path d="M1.05157 14.3215C2.13178 13.4882 3.21147 12.6507 4.29064 11.809C4.70815 13.0343 5.50221 14.0964 6.55939 14.8434C7.21868 15.3096 7.96797 15.6332 8.75939 15.7934C9.53916 15.9384 10.339 15.9384 11.1188 15.7934C11.8963 15.662 12.6377 15.3692 13.2953 14.934C14.3406 15.7496 15.3906 16.559 16.4359 17.3746C15.292 18.4148 13.8975 19.1401 12.3891 19.4793C10.7241 19.8708 8.98896 19.852 7.33282 19.4246C6.02298 19.0749 4.7995 18.4584 3.73907 17.6137C2.61677 16.7225 1.70007 15.5995 1.05157 14.3215Z" fill="#319F43"/>
</svg>
