<svg width="24" height="24" viewBox="0 0 24 24" fill="none" xmlns="http://www.w3.org/2000/svg">
<path d="M10.2824 0.185226C10.3309 0.243881 10.3694 0.313533 10.3957 0.390203C10.4219 0.466873 10.4354 0.549057 10.4354 0.632053C10.4354 0.715049 10.4219 0.797233 10.3957 0.873903C10.3694 0.950572 10.3309 1.02022 10.2824 1.07888L1.78212 11.3685L23.4783 11.3685C23.6166 11.3685 23.7493 11.4351 23.8472 11.5535C23.945 11.6719 24 11.8326 24 12.0001C24 12.1676 23.945 12.3282 23.8472 12.4467C23.7493 12.5651 23.6166 12.6316 23.4783 12.6316L1.78212 12.6316L10.2824 22.9213C10.3309 22.9799 10.3693 23.0496 10.3956 23.1263C10.4218 23.2029 10.4353 23.2851 10.4353 23.3681C10.4353 23.4511 10.4218 23.5332 10.3956 23.6099C10.3693 23.6866 10.3309 23.7562 10.2824 23.8149C10.2339 23.8736 10.1764 23.9201 10.1131 23.9519C10.0497 23.9837 9.98184 24 9.91328 24C9.84473 24 9.77685 23.9837 9.71352 23.9519C9.65018 23.9201 9.59263 23.8736 9.54416 23.8149L0.153016 12.4469C0.104508 12.3882 0.0660257 12.3186 0.03977 12.2419C0.0135143 12.1653 0 12.0831 0 12.0001C0 11.9171 0.0135143 11.8349 0.03977 11.7582C0.0660257 11.6816 0.104508 11.6119 0.153016 11.5532L9.54416 0.185226C9.59261 0.126506 9.65016 0.0799232 9.71349 0.0481406C9.77683 0.016358 9.84472 1.74186e-08 9.91328 1.74186e-08C9.98185 1.74186e-08 10.0497 0.016358 10.1131 0.0481406C10.1764 0.0799232 10.234 0.126506 10.2824 0.185226Z" fill="black"/>
</svg>
