<svg width="23" height="25" viewBox="0 0 23 25" fill="none" xmlns="http://www.w3.org/2000/svg">
<path d="M15 15.95C16.9091 15.95 18.1818 17.031 18.1818 18.25H22V1H18.1818C18.1818 2.15 16.9091 3.3 15 3.3C13.0909 3.3 11.8182 2.15 11.8182 1H8V9.05" stroke="black" stroke-opacity="0.7" stroke-width="2" stroke-linecap="round" stroke-linejoin="round"/>
<path d="M15 24H11.1818C11.1818 22.781 9.90909 21.7 8 21.7C6.09091 21.7 4.81818 22.781 4.81818 24H1V6.75H4.81818C4.81818 7.9 6.09091 9.05 8 9.05C9.90909 9.05 11.1818 7.9 11.1818 6.75H15V24Z" stroke="black" stroke-opacity="0.7" stroke-width="2" stroke-linecap="round" stroke-linejoin="round"/>
<path d="M5.3125 14.6136C6.03737 14.6136 6.625 14.0286 6.625 13.3068C6.625 12.5851 6.03737 12 5.3125 12C4.58763 12 4 12.5851 4 13.3068C4 14.0286 4.58763 14.6136 5.3125 14.6136Z" fill="black" fill-opacity="0.7"/>
<path d="M8.4375 14.7182C9.16237 14.7182 9.75 14.1331 9.75 13.4114C9.75 12.6896 9.16237 12.1046 8.4375 12.1046C7.71263 12.1046 7.125 12.6896 7.125 13.4114C7.125 14.1331 7.71263 14.7182 8.4375 14.7182Z" fill="black" fill-opacity="0.7"/>
<path d="M11.5625 14.7182C12.2874 14.7182 12.875 14.1331 12.875 13.4114C12.875 12.6896 12.2874 12.1046 11.5625 12.1046C10.8376 12.1046 10.25 12.6896 10.25 13.4114C10.25 14.1331 10.8376 14.7182 11.5625 14.7182Z" fill="black" fill-opacity="0.7"/>
</svg>
