<svg width="23" height="23" viewBox="0 0 23 23" fill="none" xmlns="http://www.w3.org/2000/svg">
<path d="M18.4011 20.7H20.7V23H11.5C5.14855 23 0 17.8514 0 11.5C0 5.14855 5.14855 0 11.5 0C17.8514 0 23 5.14855 23 11.5C23.0015 13.2855 22.5866 15.0467 21.7882 16.6437C20.9899 18.2407 19.8302 19.6296 18.4011 20.7ZM11.5 9.2C12.11 9.2 12.695 8.95768 13.1263 8.52634C13.5577 8.09501 13.8 7.51 13.8 6.9C13.8 6.29 13.5577 5.70499 13.1263 5.27365C12.695 4.84232 12.11 4.6 11.5 4.6C10.89 4.6 10.305 4.84232 9.87365 5.27365C9.44232 5.70499 9.2 6.29 9.2 6.9C9.2 7.51 9.44232 8.09501 9.87365 8.52634C10.305 8.95768 10.89 9.2 11.5 9.2ZM6.9 13.8C7.51 13.8 8.09501 13.5577 8.52634 13.1263C8.95768 12.695 9.2 12.11 9.2 11.5C9.2 10.89 8.95768 10.305 8.52634 9.87365C8.09501 9.44232 7.51 9.2 6.9 9.2C6.29 9.2 5.70499 9.44232 5.27365 9.87365C4.84232 10.305 4.6 10.89 4.6 11.5C4.6 12.11 4.84232 12.695 5.27365 13.1263C5.70499 13.5577 6.29 13.8 6.9 13.8ZM16.1 13.8C16.71 13.8 17.295 13.5577 17.7263 13.1263C18.1577 12.695 18.4 12.11 18.4 11.5C18.4 10.89 18.1577 10.305 17.7263 9.87365C17.295 9.44232 16.71 9.2 16.1 9.2C15.49 9.2 14.905 9.44232 14.4737 9.87365C14.0423 10.305 13.8 10.89 13.8 11.5C13.8 12.11 14.0423 12.695 14.4737 13.1263C14.905 13.5577 15.49 13.8 16.1 13.8ZM11.5 18.4C12.11 18.4 12.695 18.1577 13.1263 17.7263C13.5577 17.295 13.8 16.71 13.8 16.1C13.8 15.49 13.5577 14.905 13.1263 14.4737C12.695 14.0423 12.11 13.8 11.5 13.8C10.89 13.8 10.305 14.0423 9.87365 14.4737C9.44232 14.905 9.2 15.49 9.2 16.1C9.2 16.71 9.44232 17.295 9.87365 17.7263C10.305 18.1577 10.89 18.4 11.5 18.4Z" fill="#F84464"/>
</svg>
