<svg width="25" height="25" viewBox="0 0 25 25" fill="none" xmlns="http://www.w3.org/2000/svg">
<path d="M12.5 24C18.8514 24 24 18.8514 24 12.5C24 6.14855 18.8514 1 12.5 1C6.14855 1 1 6.14855 1 12.5C1 18.8514 6.14855 24 12.5 24Z" stroke="black" stroke-opacity="0.7" stroke-width="2" stroke-linejoin="round"/>
<path d="M12.5001 9.04998C12.9576 9.04998 13.3964 8.86824 13.7199 8.54473C14.0434 8.22123 14.2251 7.78247 14.2251 7.32498C14.2251 6.86748 14.0434 6.42872 13.7199 6.10522C13.3964 5.78172 12.9576 5.59998 12.5001 5.59998C12.0426 5.59998 11.6038 5.78172 11.2803 6.10522C10.9568 6.42872 10.7751 6.86748 10.7751 7.32498C10.7751 7.78247 10.9568 8.22123 11.2803 8.54473C11.6038 8.86824 12.0426 9.04998 12.5001 9.04998ZM12.5001 19.4C12.9576 19.4 13.3964 19.2182 13.7199 18.8947C14.0434 18.5712 14.2251 18.1325 14.2251 17.675C14.2251 17.2175 14.0434 16.7787 13.7199 16.4552C13.3964 16.1317 12.9576 15.95 12.5001 15.95C12.0426 15.95 11.6038 16.1317 11.2803 16.4552C10.9568 16.7787 10.7751 17.2175 10.7751 17.675C10.7751 18.1325 10.9568 18.5712 11.2803 18.8947C11.6038 19.2182 12.0426 19.4 12.5001 19.4ZM7.3251 14.225C7.7826 14.225 8.22136 14.0432 8.54486 13.7197C8.86836 13.3962 9.0501 12.9575 9.0501 12.5C9.0501 12.0425 8.86836 11.6037 8.54486 11.2802C8.22136 10.9567 7.7826 10.775 7.3251 10.775C6.8676 10.775 6.42884 10.9567 6.10534 11.2802C5.78184 11.6037 5.6001 12.0425 5.6001 12.5C5.6001 12.9575 5.78184 13.3962 6.10534 13.7197C6.42884 14.0432 6.8676 14.225 7.3251 14.225ZM17.6751 14.225C18.1326 14.225 18.5714 14.0432 18.8949 13.7197C19.2184 13.3962 19.4001 12.9575 19.4001 12.5C19.4001 12.0425 19.2184 11.6037 18.8949 11.2802C18.5714 10.9567 18.1326 10.775 17.6751 10.775C17.2176 10.775 16.7788 10.9567 16.4553 11.2802C16.1318 11.6037 15.9501 12.0425 15.9501 12.5C15.9501 12.9575 16.1318 13.3962 16.4553 13.7197C16.7788 14.0432 17.2176 14.225 17.6751 14.225Z" stroke="black" stroke-opacity="0.7" stroke-width="2" stroke-linejoin="round"/>
<path d="M12.5 24H24" stroke="black" stroke-opacity="0.7" stroke-width="2" stroke-linecap="round"/>
</svg>
