<svg width="24" height="24" viewBox="0 0 24 24" fill="none" xmlns="http://www.w3.org/2000/svg">
<path d="M16.5781 10.5505L9.44709 3.41944C9.31411 3.28646 9.15624 3.18098 8.9825 3.10901C8.80876 3.03704 8.62254 3 8.43448 3C8.05468 3 7.69043 3.15088 7.42187 3.41944C7.28889 3.55241 7.18341 3.71028 7.11144 3.88402C7.03947 4.05777 7.00243 4.24399 7.00243 4.43204C7.00243 4.81185 7.15331 5.17609 7.42187 5.44465L13.5546 11.5631L7.42187 17.6815C7.28819 17.8141 7.18209 17.9718 7.10969 18.1456C7.03728 18.3194 7 18.5059 7 18.6941C7 18.8824 7.03728 19.0688 7.10969 19.2426C7.18209 19.4164 7.28819 19.5742 7.42187 19.7067C7.55445 19.8404 7.71219 19.9465 7.88599 20.0189C8.05979 20.0913 8.2462 20.1286 8.43448 20.1286C8.62275 20.1286 8.80917 20.0913 8.98296 20.0189C9.15676 19.9465 9.3145 19.8404 9.44709 19.7067L16.5781 12.5757C16.7118 12.4431 16.8179 12.2854 16.8903 12.1116C16.9627 11.9378 17 11.7514 17 11.5631C17 11.3748 16.9627 11.1884 16.8903 11.0146C16.8179 10.8408 16.7118 10.6831 16.5781 10.5505Z" fill="black"/>
</svg>
