<svg width="27" height="27" viewBox="0 0 27 27" fill="none" xmlns="http://www.w3.org/2000/svg">
<path d="M26 25.7069L17.2338 17.0434M10.7403 20.2521C9.46115 20.2521 8.19457 20.0031 7.01282 19.5194C5.83108 19.0356 4.75732 18.3266 3.85286 17.4327C2.94839 16.5389 2.23093 15.4777 1.74143 14.3098C1.25194 13.1419 1 11.8902 1 10.6261C1 9.36195 1.25194 8.11022 1.74143 6.94233C2.23093 5.77444 2.94839 4.71327 3.85286 3.81941C4.75732 2.92555 5.83108 2.2165 7.01282 1.73274C8.19457 1.24899 9.46115 1 10.7403 1C13.3235 1 15.801 2.01417 17.6277 3.81941C19.4543 5.62465 20.4805 8.07307 20.4805 10.6261C20.4805 13.1791 19.4543 15.6275 17.6277 17.4327C15.801 19.238 13.3235 20.2521 10.7403 20.2521Z" stroke="black" stroke-width="2"/>
</svg>
